# xmcd CD database file
#
# Track frame offsets:
#	150
#	6302
#	31122
#	48416
#	63669
#	84364
#	108856
#	130006
#	151103
#	172717
#	195109
#	219762
#	240444
#	276405
#
# Disc length: 3967 seconds
#
# Revision: 0
# Processed by: cddbd v1.5.2PL0 Copyright (c) Steve Scherf et al.
# Submitted via: CDex 1.51
#
DISCID=a00f7d0e
DTITLE=Bonamassa, Joe - Different Shades Of Blue with Bonus Tracks
DYEAR=2014
DGENRE=Blues
TTITLE0=Hey Baby (New Rising Sun)
TTITLE1=Oh Beautiful!
TTITLE2=Love Ain't A Love Song
TTITLE3=Living On The Moon
TTITLE4=Heartache Follows Wherever I Go
TTITLE5=Never Give All Your Heart
TTITLE6=I Gave Up Everything For You, 'Cept The Blues
TTITLE7=Different Shades Of Blue
TTITLE8=Get Back My Tomorrow
TTITLE9=Trouble Town
TTITLE10=So, What Would I Do
TTITLE11=Black Irish Eyes - bonus
TTITLE12=Scarlet Town - bonus
TTITLE13=Better The Devil You Know - bonus
EXTD=YEAR: 2014
EXTT0=
EXTT1=
EXTT2=
EXTT3=
EXTT4=
EXTT5=
EXTT6=
EXTT7=
EXTT8=
EXTT9=
EXTT10=
EXTT11=
EXTT12=
EXTT13=
PLAYORDER=
